<svg width="60" height="48" viewBox="0 0 60 48" fill="none" xmlns="http://www.w3.org/2000/svg">
<g clip-path="url(#clip0_479_4362)">
<path d="M31.4761 25.0199H28.4839C27.0884 25.02 25.7351 24.5412 24.6503 23.6634C23.5655 22.7856 22.8148 21.562 22.5237 20.1972L19.6659 6.78443C19.5875 6.4151 19.6569 6.02976 19.8592 5.71099C20.0615 5.39221 20.3806 5.16536 20.7482 5.07903C21.1157 4.9927 21.5025 5.05376 21.8256 5.24914C22.1486 5.44451 22.3823 5.75866 22.4766 6.12426L25.3145 19.4135C25.4782 20.181 25.9016 20.8687 26.5134 21.3604C27.1251 21.8521 27.8877 22.1178 28.6725 22.1127L31.4004 22.097C32.1358 22.0927 32.8395 21.7969 33.3573 21.2746C33.875 20.7523 34.1646 20.046 34.1625 19.3106V18.146C34.1616 17.6312 33.9568 17.1377 33.5931 16.7734C33.2293 16.4091 32.7361 16.2036 32.2213 16.2019L29.0883 16.1919C28.3153 16.1919 27.6372 15.6096 27.5879 14.8344C27.5756 14.6376 27.6038 14.4404 27.6706 14.2549C27.7375 14.0694 27.8417 13.8996 27.9767 13.7559C28.1117 13.6123 28.2748 13.4978 28.4558 13.4196C28.6368 13.3414 28.8318 13.301 29.029 13.3011H32.1591C32.8009 13.3015 33.4363 13.4284 34.0291 13.6744C34.6218 13.9205 35.1603 14.2809 35.6137 14.7352C36.067 15.1894 36.4265 15.7285 36.6714 16.3218C36.9163 16.915 37.042 17.5506 37.0411 18.1924V19.4535C37.0414 20.1844 36.8977 20.9083 36.6181 21.5837C36.3386 22.259 35.9287 22.8727 35.4119 23.3897C34.8951 23.9066 34.2815 24.3166 33.6062 24.5964C32.9309 24.8761 32.207 25.02 31.4761 25.0199Z" fill="#4A7A8C"/>
<path d="M29.8049 10.3989C28.9954 10.4147 28.3331 9.73306 28.3331 8.92356V1.87815C28.3331 1.06865 28.9954 0.387041 29.8049 0.402045C30.1832 0.408971 30.5436 0.564055 30.8087 0.833947C31.0738 1.10384 31.2223 1.46698 31.2225 1.84528V8.95571C31.2225 9.33407 31.074 9.69732 30.8089 9.96725C30.5438 10.2372 30.1832 10.3922 29.8049 10.3989Z" fill="#4A7A8C"/>
<path d="M39.6104 6.0178L38.0657 10.9477C37.9746 11.2454 37.7904 11.5061 37.5401 11.6913C37.2898 11.8765 36.9867 11.9765 36.6753 11.9765C36.4476 11.9765 36.223 11.923 36.0197 11.8203C35.8164 11.7176 35.6401 11.5686 35.505 11.3853C35.3698 11.202 35.2796 10.9895 35.2417 10.7649C35.2037 10.5403 35.219 10.31 35.2864 10.0924L36.8189 5.29118C36.9078 4.92673 37.1351 4.61118 37.4525 4.41134C37.77 4.21149 38.1528 4.14304 38.5198 4.22048C38.8869 4.29792 39.2094 4.51517 39.4191 4.82624C39.6288 5.1373 39.7092 5.51776 39.6432 5.88705C39.6347 5.93278 39.6232 5.97493 39.6104 6.0178Z" fill="#4A7A8C"/>
<path d="M15.8492 35.9935H20.0767C20.3187 35.9934 20.5577 35.9401 20.7768 35.8374C20.9959 35.7347 21.1897 35.585 21.3445 35.399C21.4994 35.2131 21.6114 34.9953 21.6727 34.7612C21.734 34.5271 21.7431 34.2824 21.6993 34.0444C21.6021 33.5164 21.4728 33.0092 21.3113 32.7098C20.9018 31.9371 20.2827 31.2955 19.5252 30.8586C18.763 30.4166 17.8964 30.1953 16.9252 30.1949C15.954 30.1944 15.0802 30.4156 14.3038 30.8586C13.5355 31.2937 12.9042 31.9349 12.4812 32.7098C12.0391 33.5038 11.8184 34.3936 11.8188 35.3791C11.8188 36.3765 12.0461 37.2722 12.5005 38.0662C12.9515 38.8569 13.6214 39.5005 14.4295 39.9195C15.2602 40.3597 16.2129 40.5804 17.2874 40.5819C18.0727 40.5925 18.8524 40.4488 19.5823 40.1589C19.986 39.9944 20.3644 39.7736 20.7062 39.503C20.79 39.4362 20.8595 39.3532 20.9105 39.2589C20.9615 39.1647 20.993 39.0611 21.0031 38.9544C21.0131 38.8476 21.0016 38.74 20.9691 38.6379C20.9366 38.5357 20.8839 38.4412 20.8141 38.3599C20.6817 38.2062 20.4958 38.1086 20.2942 38.0869C20.0926 38.0651 19.8902 38.1208 19.7281 38.2427C19.0731 38.7252 18.2791 38.9664 17.346 38.9664C16.3457 38.9664 15.5105 38.6945 14.8404 38.1505C14.1702 37.6066 13.7767 36.8871 13.66 35.9921V34.6675C13.7629 33.7982 14.1118 33.0947 14.7067 32.5569C15.3017 32.0191 16.04 31.7507 16.9216 31.7517C17.8042 31.7517 18.5425 32.0232 19.1365 32.5662C19.6593 33.0417 20.0108 33.6763 20.1367 34.3717C20.1437 34.4075 20.1426 34.4445 20.1336 34.4799C20.1246 34.5154 20.108 34.5484 20.0848 34.5766C20.0616 34.6049 20.0324 34.6276 19.9994 34.6433C19.9664 34.659 19.9304 34.6673 19.8938 34.6675H15.8492C15.6734 34.6676 15.5049 34.7376 15.3806 34.8619C15.2563 34.9862 15.1863 35.1547 15.1862 35.3305C15.1863 35.5063 15.2563 35.6748 15.3806 35.7991C15.5049 35.9234 15.6734 35.9933 15.8492 35.9935Z" fill="#4A7A8C"/>
<path d="M38.8673 39.2908C38.7956 39.1192 38.6611 38.9815 38.4913 38.9057C38.3214 38.8298 38.1291 38.8217 37.9535 38.8828C37.6814 38.9811 37.3939 39.0295 37.1047 39.0257C36.5917 39.0257 36.1994 38.8785 35.9244 38.5842C35.6493 38.2898 35.5114 37.8697 35.5114 37.3167V31.8081H37.6713C37.8712 31.8072 38.0627 31.7273 38.204 31.5859C38.3453 31.4444 38.425 31.2529 38.4257 31.0529C38.4257 30.9534 38.4061 30.8549 38.368 30.7629C38.3299 30.671 38.2741 30.5875 38.2037 30.5172C38.1333 30.4468 38.0497 30.391 37.9577 30.353C37.8658 30.315 37.7672 30.2955 37.6677 30.2956H35.5093V28.986C35.5091 28.7416 35.4119 28.5074 35.2391 28.3347C35.0662 28.162 34.8319 28.065 34.5876 28.065C34.3433 28.065 34.1091 28.162 33.9364 28.3347C33.7637 28.5075 33.6666 28.7417 33.6666 28.986V30.2927H32.6942C32.5945 30.2927 32.4958 30.3124 32.4038 30.3507C32.3117 30.3889 32.2281 30.4449 32.1577 30.5156C32.0873 30.5862 32.0316 30.67 31.9937 30.7622C31.9558 30.8544 31.9365 30.9532 31.9369 31.0529C31.9369 31.254 32.0168 31.4468 32.1589 31.589C32.3011 31.7311 32.4939 31.811 32.6949 31.811H33.6659V37.3967C33.6659 38.4208 33.9474 39.2082 34.5104 39.7588C35.0734 40.3094 35.867 40.5847 36.8911 40.5847C37.3073 40.5851 37.7212 40.5234 38.1192 40.4018C38.2468 40.3626 38.3721 40.3161 38.4943 40.2625C38.6721 40.1825 38.8111 40.0355 38.881 39.8535C38.9508 39.6715 38.9459 39.4692 38.8673 39.2908Z" fill="#4A7A8C"/>
<path d="M43.6965 30.267C42.0139 30.5356 40.6957 31.6895 40.3799 33.7379C40.347 33.9523 40.3006 37.804 40.2806 39.5823C40.2793 39.6982 40.301 39.8133 40.3444 39.9207C40.3879 40.0282 40.4523 40.126 40.5338 40.2084C40.6154 40.2908 40.7125 40.3562 40.8195 40.4008C40.9265 40.4454 41.0413 40.4683 41.1572 40.4682C41.3897 40.4682 41.6127 40.3759 41.7771 40.2115C41.9415 40.0471 42.0339 39.8241 42.0339 39.5916V35.3991C42.0339 34.2966 42.1768 33.3578 42.7484 32.7612C43.3199 32.1646 44.0344 31.9653 45.0347 31.9653H45.0404C45.1222 31.9654 45.2032 31.9494 45.2789 31.9182C45.3545 31.8869 45.4232 31.8411 45.4811 31.7833C45.5391 31.7255 45.585 31.6569 45.6164 31.5814C45.6478 31.5058 45.664 31.4248 45.6641 31.343V30.79C45.6636 30.6254 45.5981 30.4677 45.482 30.3511C45.3659 30.2344 45.2085 30.1683 45.044 30.167C44.5928 30.1622 44.142 30.1957 43.6965 30.267Z" fill="#4A7A8C"/>
<path d="M47.3281 35.2447V39.5452C47.3283 39.7895 47.4255 40.0237 47.5983 40.1964C47.7711 40.3691 48.0055 40.4661 48.2498 40.4661C48.494 40.4661 48.7283 40.3691 48.901 40.1964C49.0737 40.0237 49.1707 39.7894 49.1707 39.5452V35.2447C49.1707 35.0004 49.0737 34.7661 48.901 34.5933C48.7283 34.4205 48.4941 34.3233 48.2498 34.3231C48.0054 34.3233 47.7711 34.4204 47.5983 34.5932C47.4255 34.766 47.3283 35.0004 47.3281 35.2447ZM49.1422 30.3013C48.901 30.0753 48.5801 29.9541 48.2498 29.9641C48.0844 29.9597 47.9199 29.9891 47.7664 30.0505C47.6128 30.1119 47.4734 30.2041 47.3567 30.3213C47.2456 30.4279 47.1568 30.5554 47.0955 30.6966C47.0342 30.8378 47.0015 30.9898 46.9995 31.1437C46.9958 31.3067 47.0256 31.4687 47.087 31.6198C47.1485 31.7708 47.2402 31.9076 47.3567 32.0218C47.4751 32.1357 47.6151 32.2249 47.7685 32.284C47.9219 32.3432 48.0855 32.3711 48.2498 32.3661C48.4151 32.371 48.5796 32.3418 48.7331 32.2803C48.8866 32.2189 49.0259 32.1265 49.1422 32.0089C49.2582 31.8955 49.3498 31.7595 49.4113 31.6094C49.4727 31.4592 49.5027 31.298 49.4994 31.1358C49.5025 30.9793 49.4722 30.824 49.4106 30.6801C49.3491 30.5362 49.2575 30.4071 49.1422 30.3013Z" fill="#4A7A8C"/>
<path d="M56.457 35.264L59.7114 31.0486C59.7651 30.9792 59.7983 30.8961 59.8071 30.8088C59.816 30.7214 59.8002 30.6333 59.7615 30.5545C59.7228 30.4757 59.6628 30.4094 59.5882 30.363C59.5137 30.3166 59.4277 30.292 59.3399 30.292H58.5154C58.4429 30.2919 58.3715 30.3086 58.3065 30.3407C58.2416 30.3728 58.1849 30.4195 58.141 30.4771L55.4974 33.9566L52.8353 30.4771C52.7914 30.4197 52.7348 30.3732 52.67 30.3412C52.6052 30.3093 52.5339 30.2927 52.4617 30.2927H51.5907C51.5032 30.2927 51.4174 30.3172 51.343 30.3634C51.2686 30.4096 51.2087 30.4757 51.1699 30.5541C51.1311 30.6326 51.115 30.7204 51.1235 30.8075C51.1319 30.8946 51.1646 30.9777 51.2178 31.0472L58.2689 40.2754C58.3143 40.3346 58.3727 40.3826 58.4396 40.4157C58.5065 40.4488 58.5801 40.466 58.6547 40.4661H59.5121C59.6033 40.4664 59.6929 40.441 59.7704 40.3928C59.8479 40.3445 59.9102 40.2754 59.9502 40.1934C59.9903 40.1114 60.0064 40.0197 59.9968 39.929C59.9871 39.8382 59.9521 39.752 59.8957 39.6802L56.457 35.264ZM53.4198 36.6122L51.052 39.6845C50.9956 39.7563 50.9606 39.8426 50.9509 39.9334C50.9413 40.0243 50.9575 40.116 50.9976 40.198C51.0378 40.2801 51.1002 40.3492 51.1778 40.3973C51.2554 40.4455 51.345 40.4708 51.4364 40.4704H52.2623C52.337 40.4704 52.4106 40.4532 52.4775 40.4201C52.5445 40.3871 52.6028 40.339 52.6481 40.2796L54.6022 37.719C54.6675 37.6336 54.7021 37.5287 54.7004 37.4212C54.6987 37.3137 54.6608 37.21 54.5929 37.1267L54.1707 36.6072C54.1255 36.5509 54.0681 36.5055 54.0029 36.4744C53.9377 36.4434 53.8662 36.4275 53.794 36.428C53.7218 36.4285 53.6506 36.4453 53.5858 36.4772C53.5209 36.5091 53.4642 36.5553 53.4198 36.6122Z" fill="#4A7A8C"/>
<path d="M10.4076 46.1182V45.6955L10.4005 45.6316V44.9353C10.4005 44.7624 10.3531 44.631 10.2584 44.541C10.166 44.451 10.0298 44.406 9.84986 44.406C9.72198 44.406 9.60238 44.4285 9.49107 44.4735C9.38213 44.5161 9.28859 44.5718 9.21044 44.6405L9.12163 44.5126C9.21399 44.4297 9.3253 44.3657 9.45555 44.3207C9.5858 44.2734 9.72198 44.2497 9.86407 44.2497C10.0938 44.2497 10.2702 44.3077 10.3934 44.4238C10.5165 44.5398 10.5781 44.7127 10.5781 44.9424V46.1182H10.4076ZM9.73974 46.1324C9.60238 46.1324 9.48278 46.1111 9.38095 46.0685C9.28148 46.0235 9.20452 45.9608 9.15005 45.8802C9.09794 45.7997 9.07189 45.7074 9.07189 45.6031C9.07189 45.5084 9.09321 45.4232 9.13584 45.3474C9.18083 45.2692 9.25425 45.2065 9.35608 45.1591C9.45792 45.1094 9.59409 45.0845 9.7646 45.0845H10.4467V45.223H9.76816C9.57633 45.223 9.44134 45.2586 9.36319 45.3296C9.2874 45.4007 9.24951 45.4895 9.24951 45.596C9.24951 45.7145 9.29451 45.8092 9.3845 45.8802C9.47449 45.9513 9.6012 45.9868 9.7646 45.9868C9.92091 45.9868 10.0523 45.9513 10.1589 45.8802C10.2679 45.8092 10.3484 45.7062 10.4005 45.5712L10.4502 45.692C10.4005 45.8269 10.3152 45.9347 10.1944 46.0152C10.076 46.0934 9.92446 46.1324 9.73974 46.1324ZM12.7622 46.1324C12.5988 46.1324 12.4733 46.0875 12.3857 45.9975C12.3004 45.9075 12.2578 45.7843 12.2578 45.628V43.8589H12.4354V45.6103C12.4354 45.7287 12.465 45.8198 12.5242 45.8838C12.5834 45.9477 12.6687 45.9797 12.78 45.9797C12.896 45.9797 12.992 45.9454 13.0677 45.8767L13.1423 46.001C13.095 46.046 13.037 46.0792 12.9683 46.1005C12.902 46.1218 12.8333 46.1324 12.7622 46.1324ZM11.9168 44.4167V44.2639H13.0251V44.4167H11.9168ZM14.2964 46.1324C14.1188 46.1324 13.9602 46.0922 13.8204 46.0117C13.6831 45.9311 13.5729 45.8198 13.4901 45.6777C13.4095 45.5357 13.3693 45.3734 13.3693 45.1911C13.3693 45.0064 13.4095 44.8441 13.4901 44.7044C13.5729 44.5623 13.6831 44.451 13.8204 44.3705C13.9602 44.29 14.1188 44.2497 14.2964 44.2497C14.4741 44.2497 14.6327 44.29 14.7725 44.3705C14.9122 44.451 15.0223 44.5623 15.1028 44.7044C15.1833 44.8441 15.2236 45.0064 15.2236 45.1911C15.2236 45.3734 15.1833 45.5357 15.1028 45.6777C15.0223 45.8198 14.9122 45.9311 14.7725 46.0117C14.6327 46.0922 14.4741 46.1324 14.2964 46.1324ZM14.2964 45.9726C14.4385 45.9726 14.5664 45.9406 14.6801 45.8767C14.7938 45.8104 14.8826 45.718 14.9465 45.5996C15.0105 45.4812 15.0424 45.345 15.0424 45.1911C15.0424 45.0348 15.0105 44.8986 14.9465 44.7826C14.8826 44.6641 14.7938 44.573 14.6801 44.509C14.5664 44.4427 14.4385 44.4096 14.2964 44.4096C14.1543 44.4096 14.0265 44.4427 13.9128 44.509C13.8015 44.573 13.7127 44.6641 13.6464 44.7826C13.5824 44.8986 13.5504 45.0348 13.5504 45.1911C13.5504 45.345 13.5824 45.4812 13.6464 45.5996C13.7127 45.718 13.8015 45.8104 13.9128 45.8767C14.0265 45.9406 14.1543 45.9726 14.2964 45.9726ZM16.5277 46.1324C16.3691 46.1324 16.2317 46.104 16.1157 46.0472C15.9996 45.988 15.9096 45.9004 15.8457 45.7843C15.7841 45.6659 15.7533 45.5203 15.7533 45.3474V44.2639H15.9309V45.3332C15.9309 45.5416 15.9842 45.7002 16.0908 45.8092C16.1974 45.9181 16.3478 45.9726 16.542 45.9726C16.6817 45.9726 16.8025 45.943 16.9043 45.8838C17.0061 45.8246 17.0843 45.7417 17.1387 45.6351C17.1932 45.5262 17.2205 45.3983 17.2205 45.2515V44.2639H17.3981V46.1182H17.2276V45.6031L17.2524 45.6635C17.198 45.808 17.1068 45.9229 16.9789 46.0081C16.8534 46.091 16.703 46.1324 16.5277 46.1324ZM18.8863 46.1324C18.7063 46.1324 18.5453 46.0922 18.4032 46.0117C18.2635 45.9311 18.1522 45.8198 18.0693 45.6777C17.9888 45.5357 17.9485 45.3734 17.9485 45.1911C17.9485 45.0064 17.9888 44.8429 18.0693 44.7008C18.1522 44.5588 18.2635 44.4486 18.4032 44.3705C18.5453 44.29 18.7063 44.2497 18.8863 44.2497C19.0355 44.2497 19.1705 44.2781 19.2913 44.335C19.4144 44.3918 19.5139 44.4771 19.5897 44.5907L19.4582 44.6866C19.3919 44.5919 19.309 44.522 19.2096 44.4771C19.1101 44.4321 19.0024 44.4096 18.8863 44.4096C18.7419 44.4096 18.6116 44.4427 18.4956 44.509C18.3819 44.573 18.2919 44.6641 18.2256 44.7826C18.1616 44.8986 18.1297 45.0348 18.1297 45.1911C18.1297 45.3474 18.1616 45.4847 18.2256 45.6031C18.2919 45.7192 18.3819 45.8104 18.4956 45.8767C18.6116 45.9406 18.7419 45.9726 18.8863 45.9726C19.0024 45.9726 19.1101 45.9501 19.2096 45.9051C19.309 45.8601 19.3919 45.7902 19.4582 45.6955L19.5897 45.7914C19.5139 45.9051 19.4144 45.9904 19.2913 46.0472C19.1705 46.104 19.0355 46.1324 18.8863 46.1324ZM20.9961 44.2497C21.1476 44.2497 21.2791 44.2793 21.3904 44.3385C21.504 44.3953 21.5917 44.483 21.6532 44.6014C21.7172 44.7174 21.7492 44.8619 21.7492 45.0348V46.1182H21.5715V45.049C21.5715 44.8406 21.5183 44.6819 21.4117 44.573C21.3075 44.464 21.1606 44.4096 20.9712 44.4096C20.8267 44.4096 20.7012 44.4392 20.5946 44.4984C20.4881 44.5576 20.4064 44.6405 20.3495 44.747C20.2951 44.8536 20.2678 44.9815 20.2678 45.1307V46.1182H20.0902V43.4824H20.2678V44.779L20.2358 44.7222C20.2927 44.5753 20.3862 44.4605 20.5165 44.3776C20.6467 44.2923 20.8066 44.2497 20.9961 44.2497ZM24.1175 46.1324C23.9398 46.1324 23.7812 46.0922 23.6415 46.0117C23.5041 45.9311 23.394 45.8198 23.3111 45.6777C23.2306 45.5357 23.1903 45.3734 23.1903 45.1911C23.1903 45.0064 23.2306 44.8441 23.3111 44.7044C23.394 44.5623 23.5041 44.451 23.6415 44.3705C23.7812 44.29 23.9398 44.2497 24.1175 44.2497C24.2951 44.2497 24.4538 44.29 24.5935 44.3705C24.7332 44.451 24.8433 44.5623 24.9239 44.7044C25.0044 44.8441 25.0446 45.0064 25.0446 45.1911C25.0446 45.3734 25.0044 45.5357 24.9239 45.6777C24.8433 45.8198 24.7332 45.9311 24.5935 46.0117C24.4538 46.0922 24.2951 46.1324 24.1175 46.1324ZM24.1175 45.9726C24.2596 45.9726 24.3874 45.9406 24.5011 45.8767C24.6148 45.8104 24.7036 45.718 24.7675 45.5996C24.8315 45.4812 24.8635 45.345 24.8635 45.1911C24.8635 45.0348 24.8315 44.8986 24.7675 44.7826C24.7036 44.6641 24.6148 44.573 24.5011 44.509C24.3874 44.4427 24.2596 44.4096 24.1175 44.4096C23.9754 44.4096 23.8475 44.4427 23.7338 44.509C23.6225 44.573 23.5337 44.6641 23.4674 44.7826C23.4034 44.8986 23.3715 45.0348 23.3715 45.1911C23.3715 45.345 23.4034 45.4812 23.4674 45.5996C23.5337 45.718 23.6225 45.8104 23.7338 45.8767C23.8475 45.9406 23.9754 45.9726 24.1175 45.9726ZM25.6312 46.1182V43.9797C25.6312 43.8258 25.675 43.7026 25.7626 43.6103C25.8526 43.5155 25.9805 43.4682 26.1463 43.4682C26.215 43.4682 26.2825 43.4788 26.3488 43.5002C26.4151 43.5191 26.4695 43.5487 26.5122 43.589L26.4411 43.724C26.4056 43.6884 26.363 43.6624 26.3132 43.6458C26.2635 43.6292 26.2102 43.6209 26.1534 43.6209C26.0397 43.6209 25.9533 43.6529 25.8941 43.7168C25.8349 43.7784 25.8053 43.8708 25.8053 43.9939V44.3065L25.8088 44.3918V46.1182H25.6312ZM25.2902 44.4167V44.2639H26.3985V44.4167H25.2902ZM28.036 46.1182L27.3326 44.2639H27.5031L28.1568 46.0188H28.0822L28.7536 44.2639H28.9063L29.5742 46.0188H29.496L30.1603 44.2639H30.3237L29.6203 46.1182H29.4534L28.7998 44.4344H28.8566L28.1994 46.1182H28.036ZM31.4379 46.1324C31.2508 46.1324 31.0851 46.0922 30.9406 46.0117C30.7985 45.9311 30.686 45.8198 30.6031 45.6777C30.5226 45.5357 30.4824 45.3734 30.4824 45.1911C30.4824 45.0064 30.5202 44.8441 30.596 44.7044C30.6742 44.5623 30.7807 44.451 30.9157 44.3705C31.0507 44.29 31.2023 44.2497 31.3704 44.2497C31.5386 44.2497 31.689 44.2888 31.8216 44.3669C31.9566 44.4451 32.062 44.5552 32.1377 44.6973C32.2159 44.837 32.255 44.9992 32.255 45.184C32.255 45.1911 32.2538 45.1994 32.2514 45.2088C32.2514 45.2159 32.2514 45.2242 32.2514 45.2337H30.6138V45.0952H32.1555L32.0845 45.1627C32.0868 45.0182 32.056 44.8891 31.9921 44.7754C31.9305 44.6594 31.8465 44.5694 31.7399 44.5055C31.6333 44.4392 31.5102 44.406 31.3704 44.406C31.2331 44.406 31.1099 44.4392 31.001 44.5055C30.8944 44.5694 30.8104 44.6594 30.7488 44.7754C30.6872 44.8891 30.6564 45.0194 30.6564 45.1662V45.1982C30.6564 45.3497 30.6896 45.4847 30.7559 45.6031C30.8246 45.7192 30.9181 45.8104 31.0365 45.8767C31.1549 45.9406 31.2899 45.9726 31.4415 45.9726C31.5599 45.9726 31.67 45.9513 31.7719 45.9087C31.8761 45.866 31.9637 45.8009 32.0347 45.7133L32.1377 45.8305C32.0572 45.93 31.9554 46.0057 31.8322 46.0579C31.7115 46.1076 31.58 46.1324 31.4379 46.1324ZM32.8045 46.1182V43.4824H32.9821V46.1182H32.8045ZM33.7307 46.1182V43.4824H33.9083V46.1182H33.7307ZM35.5628 44.2497C35.7144 44.2497 35.8458 44.2793 35.9571 44.3385C36.0708 44.3953 36.1584 44.483 36.22 44.6014C36.2839 44.7174 36.3159 44.8619 36.3159 45.0348V46.1182H36.1383V45.049C36.1383 44.8406 36.085 44.6819 35.9784 44.573C35.8742 44.464 35.7274 44.4096 35.5379 44.4096C35.3935 44.4096 35.268 44.4392 35.1614 44.4984C35.0548 44.5576 34.9731 44.6405 34.9163 44.747C34.8618 44.8536 34.8346 44.9815 34.8346 45.1307V46.1182H34.657V44.2639H34.8275V44.779L34.8026 44.7222C34.8594 44.5753 34.953 44.4605 35.0832 44.3776C35.2135 44.2923 35.3733 44.2497 35.5628 44.2497ZM37.8003 46.1324C37.6132 46.1324 37.4474 46.0922 37.3029 46.0117C37.1608 45.9311 37.0484 45.8198 36.9655 45.6777C36.8849 45.5357 36.8447 45.3734 36.8447 45.1911C36.8447 45.0064 36.8826 44.8441 36.9584 44.7044C37.0365 44.5623 37.1431 44.451 37.2781 44.3705C37.4131 44.29 37.5646 44.2497 37.7328 44.2497C37.9009 44.2497 38.0513 44.2888 38.1839 44.3669C38.3189 44.4451 38.4243 44.5552 38.5001 44.6973C38.5782 44.837 38.6173 44.9992 38.6173 45.184C38.6173 45.1911 38.6161 45.1994 38.6138 45.2088C38.6138 45.2159 38.6138 45.2242 38.6138 45.2337H36.9761V45.0952H38.5178L38.4468 45.1627C38.4492 45.0182 38.4184 44.8891 38.3544 44.7754C38.2929 44.6594 38.2088 44.5694 38.1022 44.5055C37.9956 44.4392 37.8725 44.406 37.7328 44.406C37.5954 44.406 37.4723 44.4392 37.3633 44.5055C37.2568 44.5694 37.1727 44.6594 37.1111 44.7754C37.0495 44.8891 37.0187 45.0194 37.0187 45.1662V45.1982C37.0187 45.3497 37.0519 45.4847 37.1182 45.6031C37.1869 45.7192 37.2804 45.8104 37.3988 45.8767C37.5173 45.9406 37.6523 45.9726 37.8038 45.9726C37.9222 45.9726 38.0324 45.9513 38.1342 45.9087C38.2384 45.866 38.326 45.8009 38.3971 45.7133L38.5001 45.8305C38.4196 45.93 38.3177 46.0057 38.1946 46.0579C38.0738 46.1076 37.9424 46.1324 37.8003 46.1324ZM39.6357 46.1324C39.4818 46.1324 39.3373 46.11 39.2023 46.065C39.0697 46.02 38.9667 45.9631 38.8933 45.8944L38.975 45.7523C39.046 45.8139 39.1407 45.8672 39.2591 45.9122C39.3776 45.9548 39.5054 45.9761 39.6428 45.9761C39.837 45.9761 39.9767 45.9442 40.062 45.8802C40.1472 45.8163 40.1899 45.7322 40.1899 45.628C40.1899 45.5522 40.1674 45.493 40.1224 45.4504C40.0797 45.4054 40.0217 45.3711 39.9483 45.3474C39.8749 45.3237 39.7944 45.3048 39.7067 45.2905C39.6191 45.274 39.5315 45.2562 39.4439 45.2373C39.3562 45.2183 39.2757 45.1911 39.2023 45.1556C39.1289 45.12 39.0697 45.0715 39.0247 45.0099C38.9821 44.946 38.9607 44.8619 38.9607 44.7577C38.9607 44.663 38.9868 44.5777 39.0389 44.5019C39.091 44.4261 39.1692 44.3657 39.2734 44.3207C39.3776 44.2734 39.5078 44.2497 39.6641 44.2497C39.7802 44.2497 39.8962 44.2663 40.0122 44.2994C40.1307 44.3326 40.2266 44.3764 40.3 44.4309L40.2183 44.573C40.1401 44.5138 40.0525 44.4711 39.9554 44.4451C39.8583 44.419 39.76 44.406 39.6606 44.406C39.4806 44.406 39.348 44.4392 39.2627 44.5055C39.1798 44.5718 39.1384 44.6547 39.1384 44.7541C39.1384 44.8323 39.1597 44.895 39.2023 44.9424C39.2473 44.9874 39.3065 45.0229 39.3799 45.049C39.4533 45.0727 39.5339 45.0928 39.6215 45.1094C39.7091 45.1236 39.7967 45.1402 39.8844 45.1591C39.972 45.178 40.0525 45.2053 40.1259 45.2408C40.1993 45.274 40.2574 45.3213 40.3 45.3829C40.345 45.4421 40.3675 45.5226 40.3675 45.6245C40.3675 45.7263 40.3391 45.8151 40.2822 45.8909C40.2278 45.9667 40.1461 46.0259 40.0371 46.0685C39.9282 46.1111 39.7944 46.1324 39.6357 46.1324ZM41.3321 46.1324C41.1782 46.1324 41.0337 46.11 40.8987 46.065C40.7661 46.02 40.6631 45.9631 40.5896 45.8944L40.6714 45.7523C40.7424 45.8139 40.8371 45.8672 40.9555 45.9122C41.074 45.9548 41.2018 45.9761 41.3392 45.9761C41.5334 45.9761 41.6731 45.9442 41.7584 45.8802C41.8436 45.8163 41.8863 45.7322 41.8863 45.628C41.8863 45.5522 41.8638 45.493 41.8188 45.4504C41.7761 45.4054 41.7181 45.3711 41.6447 45.3474C41.5713 45.3237 41.4908 45.3048 41.4031 45.2905C41.3155 45.274 41.2279 45.2562 41.1403 45.2373C41.0526 45.2183 40.9721 45.1911 40.8987 45.1556C40.8253 45.12 40.7661 45.0715 40.7211 45.0099C40.6785 44.946 40.6571 44.8619 40.6571 44.7577C40.6571 44.663 40.6832 44.5777 40.7353 44.5019C40.7874 44.4261 40.8655 44.3657 40.9697 44.3207C41.074 44.2734 41.2042 44.2497 41.3605 44.2497C41.4766 44.2497 41.5926 44.2663 41.7086 44.2994C41.8271 44.3326 41.923 44.3764 41.9964 44.4309L41.9147 44.573C41.8365 44.5138 41.7489 44.4711 41.6518 44.4451C41.5547 44.419 41.4564 44.406 41.357 44.406C41.177 44.406 41.0443 44.4392 40.9591 44.5055C40.8762 44.5718 40.8348 44.6547 40.8348 44.7541C40.8348 44.8323 40.8561 44.895 40.8987 44.9424C40.9437 44.9874 41.0029 45.0229 41.0763 45.049C41.1497 45.0727 41.2303 45.0928 41.3179 45.1094C41.4055 45.1236 41.4931 45.1402 41.5808 45.1591C41.6684 45.178 41.7489 45.2053 41.8223 45.2408C41.8957 45.274 41.9538 45.3213 41.9964 45.3829C42.0414 45.4421 42.0639 45.5226 42.0639 45.6245C42.0639 45.7263 42.0355 45.8151 41.9786 45.8909C41.9241 45.9667 41.8424 46.0259 41.7335 46.0685C41.6246 46.1111 41.4908 46.1324 41.3321 46.1324Z" fill="#4A7A8C"/>
<path d="M29.2884 35.204V35.4184C29.2884 35.3469 29.2884 35.2755 29.2812 35.204H29.2884Z" fill="#4A7A8C"/>
<path d="M5.33213 30.1956C4.0018 30.1961 2.71972 30.694 1.73756 31.5912C0.755401 32.4885 0.144081 33.7205 0.0235957 35.0454C0.00743973 35.2054 -0.000429981 35.3661 1.81047e-05 35.527C-0.000264529 36.5818 0.312278 37.613 0.898116 38.4902C1.48395 39.3674 2.31677 40.0511 3.29123 40.4549C4.2657 40.8588 5.33803 40.9645 6.37261 40.7589C7.40719 40.5532 8.35754 40.0453 9.10347 39.2995C9.84939 38.5537 10.3574 37.6034 10.5632 36.5689C10.769 35.5343 10.6634 34.4619 10.2597 33.4874C9.85597 32.5129 9.17233 31.68 8.29523 31.0941C7.41813 30.5081 6.38695 30.1954 5.33213 30.1956ZM5.33213 39.055C4.63391 39.0554 3.95125 38.8488 3.37051 38.4611C2.78978 38.0735 2.33706 37.5223 2.06964 36.8774C1.80221 36.2324 1.73209 35.5226 1.86815 34.8377C2.00421 34.1529 2.34034 33.5238 2.834 33.03C3.32767 32.5363 3.95669 32.2 4.6415 32.0638C5.32631 31.9276 6.03613 31.9976 6.68116 32.2649C7.32619 32.5322 7.87745 32.9848 8.2652 33.5655C8.65295 34.1461 8.85976 34.8287 8.85948 35.527C8.85929 36.4625 8.48762 37.3596 7.82618 38.0212C7.16473 38.6828 6.26765 39.0546 5.33213 39.055Z" fill="#4A7A8C"/>
<path d="M0.367242 26.8976H1.4561C1.50439 26.8976 1.55218 26.9073 1.59675 26.9258C1.64131 26.9444 1.68178 26.9716 1.71582 27.0059C1.74986 27.0401 1.77682 27.0807 1.79515 27.1254C1.81347 27.1701 1.82281 27.2179 1.82262 27.2662V35.0468H2.7803e-06V27.2662C-0.00018534 27.2179 0.00917474 27.17 0.027546 27.1252C0.0459172 27.0805 0.072938 27.0399 0.107058 27.0056C0.141178 26.9714 0.181726 26.9442 0.226375 26.9256C0.271024 26.9071 0.318895 26.8976 0.367242 26.8976Z" fill="#4A7A8C"/>
<path d="M30.0079 31.2316C29.2596 30.5409 28.1815 30.1956 26.7735 30.1956C25.9865 30.1915 25.2034 30.3051 24.45 30.5328C24.0133 30.6639 23.5931 30.8447 23.1976 31.0715C23.0223 31.1771 22.8952 31.3469 22.8432 31.5447C22.7911 31.7426 22.8183 31.9529 22.9189 32.1311C23.0202 32.3141 23.1898 32.4494 23.3907 32.5076C23.5916 32.5657 23.8073 32.5418 23.9906 32.4412C24.2488 32.3007 24.5184 32.1824 24.7965 32.0875C25.3645 31.8903 25.9615 31.7896 26.5627 31.7896C27.4587 31.7896 28.1372 32.0006 28.5983 32.4226C29.0155 32.8063 29.2448 33.3443 29.282 34.033C29.287 34.1045 29.2891 34.1759 29.2891 34.2473L29.2841 37.3853C29.2828 37.8558 29.0951 38.3065 28.762 38.6388C28.4289 38.9711 27.9777 39.1577 27.5073 39.1579H26.4534C26.4198 39.1579 26.382 39.1579 26.3505 39.1579C25.6461 39.1579 25.0959 39.015 24.7001 38.7171C24.3043 38.4192 24.1056 38.0198 24.1056 37.5068C24.1056 36.4589 24.8859 35.9349 26.4463 35.9349H27.2736C27.4493 35.9349 27.6177 35.8652 27.7419 35.7409C27.8662 35.6167 27.9359 35.4483 27.9359 35.2726C27.9359 35.1857 27.9188 35.0996 27.8855 35.0193C27.8522 34.939 27.8034 34.866 27.7419 34.8045C27.6804 34.7431 27.6074 34.6944 27.527 34.6612C27.4467 34.628 27.3606 34.6109 27.2736 34.611H26.3705C24.9502 34.611 23.9135 34.883 23.2604 35.4269C22.6074 35.9709 22.2809 36.6904 22.2809 37.5854C22.2809 38.4823 22.6234 39.2058 23.3083 39.7559C23.9932 40.3061 24.9051 40.5811 26.044 40.5811C26.1626 40.5811 26.2776 40.5811 26.3912 40.5726L26.372 40.5811H27.9781C28.7985 40.5815 29.5867 40.2618 30.1751 39.6901C30.7635 39.1184 31.1057 38.3397 31.1289 37.5196V34.3231C31.1299 32.9527 30.7562 31.9222 30.0079 31.2316Z" fill="#4A7A8C"/>
</g>
<defs>
<clipPath id="clip0_479_4362">
<rect width="60" height="47.1959" fill="white" transform="translate(0 0.402039)"/>
</clipPath>
</defs>
</svg>
