<svg width="252" height="252" viewBox="0 0 252 252" fill="none" xmlns="http://www.w3.org/2000/svg">
<rect width="120" height="120" rx="20" fill="#EFEFEF"/>
<path d="M60.0968 74.0959C55.4092 74.0959 50.7215 74.0959 46.0339 74.0959C45.8049 74.0959 45.573 74.0959 45.343 74.0722C44.1694 73.9627 43.6976 73.1721 44.1981 72.1031C44.6323 71.1803 45.1061 70.2811 45.5661 69.3681C47.7375 65.0694 49.9089 60.7713 52.0803 56.4738C52.1474 56.3426 52.2175 56.2113 52.2955 56.0859C52.8423 55.2095 53.7306 55.0861 54.4304 55.8421C54.9239 56.3712 55.3414 56.9654 55.7816 57.5388C58.0188 60.4623 60.256 63.3872 62.4933 66.3133C63.4704 67.5866 64.7012 67.6557 65.8491 66.5107C66.4186 65.9422 66.9753 65.3589 67.5517 64.7953C68.591 63.7787 69.7705 63.8399 70.6193 65.0253C72.3229 67.404 73.984 69.8143 75.6531 72.2166C75.7835 72.4051 75.8834 72.613 75.9492 72.8325C76.111 73.3843 75.8821 73.8284 75.3224 73.9755C74.9715 74.0595 74.6113 74.0983 74.2505 74.091C69.5353 74.0989 64.8173 74.1005 60.0968 74.0959Z" fill="#4A7A8C"/>
<path d="M70.6094 50.5409C70.6082 51.4585 70.3346 52.355 69.8233 53.1168C69.3119 53.8787 68.5859 54.4715 67.7372 54.8203C66.8885 55.169 65.9554 55.2578 65.0562 55.0756C64.1569 54.8933 63.332 54.4482 62.6861 53.7965C62.0401 53.1449 61.6022 52.3161 61.4278 51.4153C61.2535 50.5145 61.3505 49.5822 61.7066 48.7366C62.0628 47.891 62.662 47.1702 63.4283 46.6655C64.1946 46.1609 65.0934 45.8951 66.011 45.902C67.2327 45.9175 68.3995 46.4125 69.2597 47.2803C70.1199 48.148 70.6046 49.3191 70.6094 50.5409Z" fill="#4A7A8C"/>
<rect x="132" width="120" height="120" rx="20" fill="#EFEFEF"/>
<path d="M192.097 74.0959C187.409 74.0959 182.722 74.0959 178.034 74.0959C177.805 74.0959 177.573 74.0959 177.343 74.0722C176.169 73.9627 175.698 73.1721 176.198 72.1031C176.632 71.1803 177.106 70.2811 177.566 69.3681C179.737 65.0694 181.909 60.7713 184.08 56.4738C184.147 56.3426 184.218 56.2113 184.295 56.0859C184.842 55.2095 185.731 55.0861 186.43 55.8421C186.924 56.3712 187.341 56.9654 187.782 57.5388C190.019 60.4623 192.256 63.3872 194.493 66.3133C195.47 67.5866 196.701 67.6557 197.849 66.5107C198.419 65.9422 198.975 65.3589 199.552 64.7953C200.591 63.7787 201.77 63.8399 202.619 65.0253C204.323 67.404 205.984 69.8143 207.653 72.2166C207.784 72.4051 207.883 72.613 207.949 72.8325C208.111 73.3843 207.882 73.8284 207.322 73.9755C206.972 74.0595 206.611 74.0983 206.251 74.091C201.535 74.0989 196.817 74.1005 192.097 74.0959Z" fill="#4A7A8C"/>
<path d="M202.609 50.5409C202.608 51.4585 202.335 52.355 201.823 53.1168C201.312 53.8787 200.586 54.4715 199.737 54.8203C198.889 55.169 197.955 55.2578 197.056 55.0756C196.157 54.8933 195.332 54.4482 194.686 53.7965C194.04 53.1449 193.602 52.3161 193.428 51.4153C193.253 50.5145 193.35 49.5822 193.707 48.7366C194.063 47.891 194.662 47.1702 195.428 46.6655C196.195 46.1609 197.093 45.8951 198.011 45.902C199.233 45.9175 200.399 46.4125 201.26 47.2803C202.12 48.148 202.605 49.3191 202.609 50.5409Z" fill="#4A7A8C"/>
<rect x="132" y="132" width="120" height="120" rx="20" fill="#EFEFEF"/>
<path d="M192.097 206.096C187.409 206.096 182.722 206.096 178.034 206.096C177.805 206.096 177.573 206.096 177.343 206.072C176.169 205.963 175.698 205.172 176.198 204.103C176.632 203.18 177.106 202.281 177.566 201.368C179.737 197.069 181.909 192.771 184.08 188.474C184.147 188.343 184.218 188.211 184.295 188.086C184.842 187.209 185.731 187.086 186.43 187.842C186.924 188.371 187.341 188.965 187.782 189.539C190.019 192.462 192.256 195.387 194.493 198.313C195.47 199.587 196.701 199.656 197.849 198.511C198.419 197.942 198.975 197.359 199.552 196.795C200.591 195.779 201.77 195.84 202.619 197.025C204.323 199.404 205.984 201.814 207.653 204.217C207.784 204.405 207.883 204.613 207.949 204.833C208.111 205.384 207.882 205.828 207.322 205.975C206.972 206.059 206.611 206.098 206.251 206.091C201.535 206.099 196.817 206.101 192.097 206.096Z" fill="#4A7A8C"/>
<path d="M202.609 182.541C202.608 183.458 202.335 184.355 201.823 185.117C201.312 185.879 200.586 186.472 199.737 186.82C198.889 187.169 197.955 187.258 197.056 187.076C196.157 186.893 195.332 186.448 194.686 185.797C194.04 185.145 193.602 184.316 193.428 183.415C193.253 182.515 193.35 181.582 193.707 180.737C194.063 179.891 194.662 179.17 195.428 178.666C196.195 178.161 197.093 177.895 198.011 177.902C199.233 177.918 200.399 178.413 201.26 179.28C202.12 180.148 202.605 181.319 202.609 182.541Z" fill="#4A7A8C"/>
<rect y="132" width="120" height="120" rx="20" fill="#EFEFEF"/>
<path d="M60.0968 206.096C55.4092 206.096 50.7215 206.096 46.0339 206.096C45.8049 206.096 45.573 206.096 45.343 206.072C44.1694 205.963 43.6976 205.172 44.1981 204.103C44.6323 203.18 45.1061 202.281 45.5661 201.368C47.7375 197.069 49.9089 192.771 52.0803 188.474C52.1474 188.343 52.2175 188.211 52.2955 188.086C52.8423 187.209 53.7306 187.086 54.4304 187.842C54.9239 188.371 55.3414 188.965 55.7816 189.539C58.0188 192.462 60.256 195.387 62.4933 198.313C63.4704 199.587 64.7012 199.656 65.8491 198.511C66.4186 197.942 66.9753 197.359 67.5517 196.795C68.591 195.779 69.7705 195.84 70.6193 197.025C72.3229 199.404 73.984 201.814 75.6531 204.217C75.7835 204.405 75.8834 204.613 75.9492 204.833C76.111 205.384 75.8821 205.828 75.3224 205.975C74.9715 206.059 74.6113 206.098 74.2505 206.091C69.5353 206.099 64.8173 206.101 60.0968 206.096Z" fill="#4A7A8C"/>
<path d="M70.6094 182.541C70.6082 183.458 70.3346 184.355 69.8233 185.117C69.3119 185.879 68.5859 186.472 67.7372 186.82C66.8885 187.169 65.9554 187.258 65.0562 187.076C64.1569 186.893 63.332 186.448 62.6861 185.797C62.0401 185.145 61.6022 184.316 61.4278 183.415C61.2535 182.515 61.3505 181.582 61.7066 180.737C62.0628 179.891 62.662 179.17 63.4283 178.666C64.1946 178.161 65.0934 177.895 66.011 177.902C67.2327 177.918 68.3995 178.413 69.2597 179.28C70.1199 180.148 70.6046 181.319 70.6094 182.541Z" fill="#4A7A8C"/>
</svg>
