<svg width="20" height="19" viewBox="0 0 20 19" fill="none" xmlns="http://www.w3.org/2000/svg">
<path fill-rule="evenodd" clip-rule="evenodd" d="M6.962 16.87C4.019 14.472 0 10.509 0 6.75997C0 0.849975 5.5 -1.83702 10 2.99997C14.5 -1.83702 20 0.848975 20 6.75997C20 10.508 15.98 14.471 13.038 16.87C11.706 17.958 11.04 18.5 10 18.5C8.96 18.5 8.294 17.957 6.962 16.87ZM8.093 8.24598C8.18167 8.11931 8.25833 8.01097 8.323 7.92097C8.379 8.01897 8.442 8.13197 8.517 8.26897L10.227 11.379C10.393 11.681 10.557 11.977 10.72 12.192C10.895 12.422 11.202 12.737 11.695 12.747C12.188 12.756 12.508 12.452 12.691 12.229C12.863 12.02 13.036 11.731 13.214 11.435L13.269 11.342C13.49 10.975 13.629 10.744 13.752 10.578C13.865 10.425 13.931 10.375 13.98 10.348C14.029 10.32 14.105 10.289 14.295 10.271C14.501 10.251 14.769 10.251 15.199 10.251H16C16.1989 10.251 16.3897 10.172 16.5303 10.0313C16.671 9.89065 16.75 9.69989 16.75 9.50098C16.75 9.30206 16.671 9.1113 16.5303 8.97064C16.3897 8.82999 16.1989 8.75098 16 8.75098H15.166C14.779 8.75098 14.436 8.75097 14.15 8.77798C13.8311 8.79883 13.5206 8.88892 13.24 9.04198C12.9647 9.20373 12.7279 9.42349 12.546 9.68598C12.375 9.91698 12.199 10.211 12 10.543L11.952 10.623C11.865 10.767 11.793 10.887 11.728 10.991L11.518 10.614L9.809 7.50597C9.655 7.22597 9.502 6.94597 9.346 6.74097C9.176 6.51797 8.884 6.22097 8.416 6.19697C7.949 6.17097 7.627 6.43397 7.434 6.63797C7.257 6.82497 7.074 7.08597 6.891 7.34797L6.581 7.78997C6.354 8.11497 6.211 8.31698 6.088 8.46298C5.975 8.59698 5.912 8.64097 5.865 8.66498C5.819 8.68997 5.747 8.71598 5.572 8.73198C5.382 8.74898 5.134 8.74998 4.738 8.74998H4C3.80109 8.74998 3.61032 8.82899 3.46967 8.96965C3.32902 9.1103 3.25 9.30106 3.25 9.49998C3.25 9.69889 3.32902 9.88965 3.46967 10.0303C3.61032 10.171 3.80109 10.25 4 10.25H4.768C5.125 10.25 5.442 10.25 5.708 10.226C5.998 10.199 6.279 10.141 6.558 9.99598C6.838 9.84998 7.047 9.65298 7.234 9.43097C7.407 9.22697 7.588 8.96798 7.793 8.67498L8.093 8.24598Z" fill="#5965A4"/>
</svg>
