<svg width="18" height="21" viewBox="0 0 18 21" fill="none" xmlns="http://www.w3.org/2000/svg">
<path d="M1 12.5C1 14.833 2.4 19.5 8 19.5C8 17.167 6.6 12.5 1 12.5ZM4 6.5V2.5L6.5 4.5L9 1.5L11.5 4.5L14 2.5V6.5C14 8.167 13 11.5 9 11.5C5 11.5 4 8.167 4 6.5ZM17 12.5C17 14.833 15.6 19.5 10 19.5C10 17.167 11.4 12.5 17 12.5Z" fill="#5965A4"/>
<path d="M8 19.5C2.4 19.5 1 14.833 1 12.5C6.6 12.5 8 17.167 8 19.5ZM8 19.5H9M9 19.5V11.5M9 19.5H10M9 11.5C5 11.5 4 8.167 4 6.5V2.5L6.5 4.5L9 1.5L11.5 4.5L14 2.5V6.5C14 8.167 13 11.5 9 11.5ZM10 19.5C15.6 19.5 17 14.833 17 12.5C11.4 12.5 10 17.167 10 19.5Z" stroke="#5965A4" stroke-width="2" stroke-linecap="round" stroke-linejoin="round"/>
</svg>
