<svg width="24" height="24" viewBox="0 0 24 24" fill="none" xmlns="http://www.w3.org/2000/svg">
<path d="M12 11.68C15.3 8.68 17 7.14 17 5.19C17 3.69 15.75 2.5 14.25 2.5C13.39 2.5 12.57 2.86 12 3.5C11.43 2.86 10.61 2.5 9.69 2.5C8.19 2.5 7 3.75 7 5.25C7 7.14 8.7 8.68 12 11.68ZM11.18 12.5C8.18 9.2 6.64 7.5 4.69 7.5C3.19 7.5 2 8.75 2 10.25C2 11.11 2.36 11.93 3 12.5C2.36 13.07 2 13.89 2 14.81C2 16.31 3.25 17.5 4.75 17.5C6.64 17.5 8.18 15.8 11.18 12.5ZM12.83 12.5C15.82 15.8 17.36 17.5 19.31 17.5C20.81 17.5 22 16.25 22 14.75C22 13.89 21.64 13.07 21 12.5C21.64 11.93 22 11.11 22 10.19C22 8.69 20.75 7.5 19.25 7.5C17.36 7.5 15.82 9.2 12.83 12.5ZM12 13.32C8.7 16.32 7 17.86 7 19.81C7 21.31 8.25 22.5 9.75 22.5C10.61 22.5 11.43 22.14 12 21.5C12.57 22.14 13.39 22.5 14.31 22.5C15.81 22.5 17 21.25 17 19.75C17 17.86 15.3 16.32 12 13.32Z" fill="#5965A4"/>
</svg>
